<svg viewBox="0 0 100 100" fill="none" xmlns="http://www.w3.org/2000/svg">
  <defs>
    <linearGradient id="brainGradient" x1="0%" y1="0%" x2="100%" y2="100%">
      <stop offset="0%" stop-color="#FF5F6D" />
      <stop offset="100%" stop-color="#FF3747" />
    </linearGradient>
  </defs>
  
  <!-- Main brain shape -->
  <path d="M30 35C30 25 35 15 45 15C50 12 60 12 65 15C75 15 80 25 80 35C82 40 80 45 78 50C80 55 82 60 80 65C80 75 75 85 65 85C60 88 50 88 45 85C35 85 30 75 30 65C28 60 30 55 32 50C30 45 28 40 30 35Z" fill="url(#brainGradient)" stroke="#FF5F6D" stroke-width="1"/>
  
  <!-- Left hemisphere details -->
  <path d="M35 25C40 22 45 25 50 22" stroke="white" stroke-width="1.5" stroke-linecap="round" opacity="0.7"/>
  <path d="M33 35C38 32 43 35 48 32" stroke="white" stroke-width="1.5" stroke-linecap="round" opacity="0.7"/>
  <path d="M35 45C40 42 45 45 50 42" stroke="white" stroke-width="1.5" stroke-linecap="round" opacity="0.7"/>
  <path d="M33 55C38 52 43 55 48 52" stroke="white" stroke-width="1.5" stroke-linecap="round" opacity="0.7"/>
  <path d="M35 65C40 62 45 65 50 62" stroke="white" stroke-width="1.5" stroke-linecap="round" opacity="0.7"/>
  <path d="M38 75C43 72 48 75 53 72" stroke="white" stroke-width="1.5" stroke-linecap="round" opacity="0.7"/>
  
  <!-- Right hemisphere details -->
  <path d="M60 22C65 25 70 22 75 25" stroke="white" stroke-width="1.5" stroke-linecap="round" opacity="0.7"/>
  <path d="M62 32C67 35 72 32 77 35" stroke="white" stroke-width="1.5" stroke-linecap="round" opacity="0.7"/>
  <path d="M60 42C65 45 70 42 75 45" stroke="white" stroke-width="1.5" stroke-linecap="round" opacity="0.7"/>
  <path d="M62 52C67 55 72 52 77 55" stroke="white" stroke-width="1.5" stroke-linecap="round" opacity="0.7"/>
  <path d="M60 62C65 65 70 62 75 65" stroke="white" stroke-width="1.5" stroke-linecap="round" opacity="0.7"/>
  <path d="M57 72C62 75 67 72 72 75" stroke="white" stroke-width="1.5" stroke-linecap="round" opacity="0.7"/>
  
  <!-- Central divide -->
  <path d="M55 20C55 30 55 40 55 50C55 60 55 70 55 80" stroke="white" stroke-width="1" opacity="0.4"/>
  
  <!-- Neural nodes -->
  <circle cx="42" cy="30" r="2" fill="white" opacity="0.8"/>
  <circle cx="68" cy="35" r="2" fill="white" opacity="0.8"/>
  <circle cx="40" cy="45" r="2" fill="white" opacity="0.8"/>
  <circle cx="70" cy="50" r="2" fill="white" opacity="0.8"/>
  <circle cx="45" cy="60" r="2" fill="white" opacity="0.8"/>
  <circle cx="65" cy="65" r="2" fill="white" opacity="0.8"/>
  
  <!-- Smaller neural nodes -->
  <circle cx="38" cy="40" r="1" fill="white" opacity="0.6"/>
  <circle cx="72" cy="40" r="1" fill="white" opacity="0.6"/>
  <circle cx="42" cy="55" r="1" fill="white" opacity="0.6"/>
  <circle cx="68" cy="55" r="1" fill="white" opacity="0.6"/>
  <circle cx="48" cy="70" r="1" fill="white" opacity="0.6"/>
  <circle cx="62" cy="70" r="1" fill="white" opacity="0.6"/>
</svg>