<svg version="1.1" id="Layer_1" xmlns="http://www.w3.org/2000/svg" xmlns:xlink="http://www.w3.org/1999/xlink" x="0px" y="0px" width="100%px" viewBox="0 0 1024 640" enable-background="new 0 0 1024 640" xml:space="preserve" height="100px" transform="rotate(0) scale(1, 1)">
<path fill="#ff5e00" opacity="1.000000" stroke="none" d="&#10;M573.219788,524.404785 &#10;&#9;C555.828064,530.237183 538.284241,533.993469 520.404175,533.137512 &#10;&#9;C473.343719,530.884705 433.724609,512.690308 403.453705,475.823273 &#10;&#9;C398.800903,470.156586 394.274170,464.398651 390.635681,457.984497 &#10;&#9;C388.851715,454.839600 389.139648,453.300232 393.084900,452.569397 &#10;&#9;C399.503082,451.380554 405.827118,449.683594 412.138824,447.752258 &#10;&#9;C403.520081,447.187897 394.939972,447.543640 386.414337,446.378723 &#10;&#9;C379.255066,445.400482 372.320038,443.937195 366.109436,440.006256 &#10;&#9;C355.198059,433.100006 352.632385,423.737762 358.097900,412.109955 &#10;&#9;C363.165466,401.328918 371.653992,393.697937 380.717773,386.533447 &#10;&#9;C390.700043,378.642944 401.683655,372.362274 413.074646,366.778473 &#10;&#9;C418.131958,364.299377 419.114777,364.990997 419.197571,370.710358 &#10;&#9;C419.224121,372.542969 419.039032,374.387360 419.183838,376.207825 &#10;&#9;C419.537872,380.659821 417.816376,383.716370 413.940704,386.099518 &#10;&#9;C408.683472,389.332153 404.016357,393.403198 399.848602,397.992218 &#10;&#9;C398.130341,399.884186 396.475891,401.974731 397.505066,404.684753 &#10;&#9;C398.582947,407.522980 401.366241,406.813202 403.585724,406.918884 &#10;&#9;C417.428619,407.577881 430.698944,404.083557 443.835724,400.578308 &#10;&#9;C473.414673,392.685944 501.330688,380.643188 528.019287,365.643402 &#10;&#9;C559.185120,348.127289 588.439087,327.874603 616.169006,305.339478 &#10;&#9;C627.941711,295.772217 639.450623,285.915283 650.673218,275.719788 &#10;&#9;C656.062744,270.823578 656.010193,270.650604 651.009949,265.591156 &#10;&#9;C645.621155,260.138550 640.190613,254.727219 634.810547,249.266083 &#10;&#9;C633.684570,248.123138 632.047180,247.262878 632.188599,245.241150 &#10;&#9;C633.426270,243.321472 635.410706,243.809647 637.161987,243.807892 &#10;&#9;C662.661377,243.782364 688.161072,243.854599 713.659912,243.739395 &#10;&#9;C717.629639,243.721481 719.347046,244.821960 719.326782,249.098740 &#10;&#9;C719.205017,274.764160 719.297546,300.430573 719.294678,326.096649 &#10;&#9;C719.294495,327.699188 719.813782,329.769196 717.768616,330.418304 &#10;&#9;C715.948364,330.996033 714.701721,329.367340 713.555664,328.231628 &#10;&#9;C707.400574,322.132080 701.236389,316.037964 695.238831,309.785126 &#10;&#9;C692.816406,307.259644 690.895691,306.799683 688.142761,309.393188 &#10;&#9;C683.660950,313.615479 678.986267,317.653137 674.183899,321.508270 &#10;&#9;C670.728699,324.281982 669.897400,327.188019 671.280396,331.518860 &#10;&#9;C680.387512,360.037384 680.665894,388.914856 673.168335,417.722412 &#10;&#9;C667.037659,441.278229 655.667603,462.243805 639.368835,480.466949 &#10;&#9;C621.216187,500.762909 599.455383,515.579773 573.219788,524.404785 &#10;M506.152893,479.918854 &#10;&#9;C505.218719,480.116089 504.052582,479.383606 503.394257,480.558533 &#10;&#9;C520.532349,484.633087 537.710938,483.542145 554.076843,477.960632 &#10;&#9;C592.492493,464.859314 616.662292,438.383453 625.728577,398.428925 &#10;&#9;C628.088928,388.027191 627.698242,377.604889 627.621826,367.135956 &#10;&#9;C627.607056,365.104919 627.219849,363.004761 625.163635,362.011719 &#10;&#9;C623.104004,361.017059 621.751099,362.806488 620.304138,363.785034 &#10;&#9;C617.408936,365.742828 614.835938,368.322083 611.725403,369.784332 &#10;&#9;C606.200562,372.381622 604.847595,376.352783 605.053772,382.197632 &#10;&#9;C605.653442,399.201782 601.698669,415.391602 593.212280,430.066772 &#10;&#9;C574.102112,463.113312 545.199402,479.751190 506.152893,479.918854 &#10;z"/>
<path fill="#ff5e00" opacity="1.000000" stroke="none" d="&#10;M589.808228,307.841461 &#10;&#9;C582.401245,313.072296 575.768311,318.849762 567.883850,322.610992 &#10;&#9;C565.701111,320.271423 566.074890,317.824738 566.070129,315.573975 &#10;&#9;C565.997253,281.450623 566.021240,247.327026 565.910645,213.203857 &#10;&#9;C565.899231,209.669113 566.955017,207.190552 570.085815,205.413071 &#10;&#9;C583.968628,197.531342 597.768799,189.503830 611.664185,181.644623 &#10;&#9;C616.150146,179.107376 617.345398,179.781158 617.339783,184.825790 &#10;&#9;C617.303528,217.451218 617.117859,250.076614 617.140747,282.701904 &#10;&#9;C617.144348,287.897217 613.762939,290.424683 610.312073,292.993011 &#10;&#9;C603.638916,297.959473 596.837524,302.753571 589.808228,307.841461 &#10;z"/>
<path fill="#ff5e00" opacity="1.000000" stroke="none" d="&#10;M500.642944,340.000671 &#10;&#9;C500.628754,318.200562 500.700623,296.899780 500.532074,275.600952 &#10;&#9;C500.504547,272.121124 501.728333,269.892090 504.557556,268.258636 &#10;&#9;C518.092041,260.444580 531.571533,252.532730 545.189331,244.866730 &#10;&#9;C550.335571,241.969666 551.183105,242.619308 551.184631,248.422241 &#10;&#9;C551.191833,275.879028 551.138672,303.335876 551.200928,330.792511 &#10;&#9;C551.208374,334.090912 550.234375,336.387146 547.347290,338.253113 &#10;&#9;C534.206909,346.745789 520.888489,354.917542 506.855621,361.869843 &#10;&#9;C501.411926,364.566864 500.700134,364.102173 500.673828,357.973236 &#10;&#9;C500.648834,352.149139 500.655914,346.324860 500.642944,340.000671 &#10;z"/>
<path fill="#ff5e00" opacity="1.000000" stroke="none" d="&#10;M485.086578,370.525787 &#10;&#9;C481.831482,374.633698 477.066162,374.931122 472.924835,376.311523 &#10;&#9;C462.065948,379.931152 451.192780,383.567291 439.827576,385.440887 &#10;&#9;C435.667694,386.126678 434.646423,384.520905 434.689514,380.639465 &#10;&#9;C434.846466,366.497162 434.844910,352.350830 434.674500,338.208740 &#10;&#9;C434.628723,334.408936 435.955750,332.129242 439.288879,330.276825 &#10;&#9;C452.518890,322.923950 465.567535,315.245148 478.784088,307.867493 &#10;&#9;C484.364532,304.752380 485.183990,305.423584 485.333649,311.789459 &#10;&#9;C485.790771,331.236938 486.347717,350.683167 485.086578,370.525787 &#10;z"/>
</svg>